<svg viewBox="0 0 200 200" xmlns="http://www.w3.org/2000/svg">
  <title>chiaro-oscuro Logo (Dark Theme)</title>
  <desc>Logo optimized for dark backgrounds</desc>
  <circle cx="100" cy="100" r="98" fill="black" stroke="#fff" stroke-width="4"/>
  <path d="M60 140 Q70 120 80 140 T100 140 T120 140 T140 140 Q140 160 120 160 T80 160 Q60 160 60 140 Z" fill="#fff"/>
  <circle cx="100" cy="80" r="20" fill="#fff"/>
  <path d="M75 78 Q70 70 75 60 Q80 50 90 60 Q100 70 95 78 Q90 85 80 80 Z" fill="#ffcc00"/>
  <path d="M105 78 Q110 70 105 60 Q100 50 90 60 Q80 70 85 78 Q90 85 100 80 Z" fill="#ffcc00"/>
  <path d="M105 135 Q90 130 80 145 Q70 145 70 160 L60 162 Q60 147 75 132 Q90 120 105 135 Z" fill="#fff"/>
</svg>